# xmcd CD database file
#
# Track frame offsets:
#	150
#	9572
#	24591
#	33086
#	81145
#	100652
#	108427
#	116764
#	124836
#	138565
#	163605
#	184406
#	219736
#	226216
#	239413
#
# Disc length: 3330 seconds
#
# Revision: 0
# Processed by: cddbd v1.5.2PL0 Copyright (c) Steve Scherf et al.
# Submitted via: CDex 1.70beta2
#
DISCID=c70d000f
DTITLE=Perelma, Ivo - Morris, Joe - Strings
DYEAR=1996
DGENRE=Jazz
TTITLE0=sun salute (take 1)
TTITLE1=nair's walk
TTITLE2=tantalizing imagery
TTITLE3=kraus house
TTITLE4=imperial
TTITLE5=solenoid
TTITLE6=neolithic man
TTITLE7=monsieur p.c.
TTITLE8=gist
TTITLE9=strings
TTITLE10=naive
TTITLE11=festa
TTITLE12=for bove
TTITLE13=n. 2
TTITLE14=sun salute (take 2)
EXTD=YEAR: 1996
EXTT0=
EXTT1=
EXTT2=
EXTT3=
EXTT4=
EXTT5=
EXTT6=
EXTT7=
EXTT8=
EXTT9=
EXTT10=
EXTT11=
EXTT12=
EXTT13=
EXTT14=
PLAYORDER=
